<svg xmlns="http://www.w3.org/2000/svg" width="24" height="24" viewBox="0 0 24 24">
  <g id="Group_2689" data-name="Group 2689" transform="translate(-52 -248)">
    <g id="video-gallery-line" transform="translate(52 249)">
      <path id="Path_2241" data-name="Path 2241" d="M20.825,10H3.175A1.152,1.152,0,0,0,2,11.128V22.072A1.152,1.152,0,0,0,3.175,23.2h17.65A1.152,1.152,0,0,0,22,22.072V11.128A1.152,1.152,0,0,0,20.825,10ZM20.75,22H3.25V11.2h17.5Z" transform="translate(0 -3.2)" fill="#848490"/>
      <path id="Path_2242" data-name="Path 2242" d="M21.14,2.6a.613.613,0,0,0-.625-.6H6.765a.613.613,0,0,0-.625.6v.6h15Z" transform="translate(-1.552)" fill="#848490"/>
      <path id="Path_2243" data-name="Path 2243" d="M21.62,6.6a.613.613,0,0,0-.625-.6H4.745a.613.613,0,0,0-.625.6v.6h17.5Z" transform="translate(-0.795 -1.6)" fill="#848490"/>
      <path id="Path_2244" data-name="Path 2244" d="M12.531,22.055a1.12,1.12,0,0,0,.581.168,1.087,1.087,0,0,0,.431-.09l6.106-2.616a1,1,0,0,0,0-1.86l-6.106-2.616a1.1,1.1,0,0,0-1.009.076,1.011,1.011,0,0,0-.484.854V21.2a1.01,1.01,0,0,0,.481.852Zm.394-6.084a.173.173,0,0,1,.087-.15.2.2,0,0,1,.1,0,.176.176,0,0,1,.075,0l6.106,2.61a.174.174,0,0,1,.113.168.168.168,0,0,1-.113.162l-6.106,2.616a.181.181,0,0,1-.175,0,.184.184,0,0,1-.088-.15Z" transform="translate(-3.769 -5.181)" fill="#848490"/>
    </g>
    <g id="Rectangle_519" data-name="Rectangle 519" transform="translate(52 248)" fill="none" stroke="#707070" stroke-width="1" opacity="0">
      <rect width="24" height="24" stroke="none"/>
      <rect x="0.5" y="0.5" width="23" height="23" fill="none"/>
    </g>
  </g>
</svg>
