<svg id="Group_475" data-name="Group 475" xmlns="http://www.w3.org/2000/svg" width="24" height="24" viewBox="0 0 24 24">
  <g id="Rectangle_115" data-name="Rectangle 115" fill="none" stroke="#707070" stroke-width="1" opacity="0">
    <rect width="24" height="24" stroke="none"/>
    <rect x="0.5" y="0.5" width="23" height="23" fill="none"/>
  </g>
  <path id="phone" d="M19.288,21.368h-.117C5.571,20.586,3.641,9.112,3.371,5.61a2.076,2.076,0,0,1,1.91-2.235H9.094a1.384,1.384,0,0,1,1.288.872l1.051,2.589a1.384,1.384,0,0,1-.3,1.495L9.655,9.818a6.484,6.484,0,0,0,5.245,5.26l1.5-1.488a1.384,1.384,0,0,1,1.5-.284l2.609,1.045a1.384,1.384,0,0,1,.852,1.287v3.654A2.076,2.076,0,0,1,19.288,21.368ZM5.447,4.759a.692.692,0,0,0-.692.692v.055c.319,4.1,2.36,13.786,14.492,14.478a.692.692,0,0,0,.734-.65v-3.7l-2.609-1.045-1.986,1.972-.332-.042c-6.021-.754-6.837-6.775-6.837-6.837l-.042-.332,1.965-1.986L9.1,4.759Z" transform="translate(-0.364 -0.372)" fill="#fff"/>
</svg>
