<svg xmlns="http://www.w3.org/2000/svg" width="24" height="24" viewBox="0 0 24 24">
  <g id="Group_2758" data-name="Group 2758" transform="translate(-52 -196)">
    <g id="Rectangle_304" data-name="Rectangle 304" transform="translate(52 196)" fill="none" stroke="#707070" stroke-width="1" opacity="0">
      <rect width="24" height="24" stroke="none"/>
      <rect x="0.5" y="0.5" width="23" height="23" fill="none"/>
    </g>
    <path id="chatbubble-outline" d="M13.539,21.511a8.3,8.3,0,0,0,8.336-8.352,8.091,8.091,0,0,0-.18-1.692,8.262,8.262,0,0,0-2.914-4.7,8.659,8.659,0,0,0-5.414-1.9,8.548,8.548,0,0,0-6.1,2.51,8.134,8.134,0,0,0-1.07,10.2c.063.087.122.176.177.268l.015.025a2.41,2.41,0,0,1,.336,1.855v.005L6.3,21.246l1.4-.507a2.959,2.959,0,0,1,1.117-.217H8.83a2.984,2.984,0,0,1,1.072.2c.229.088.8.294,1.327.442a10.239,10.239,0,0,0,2.31.347M4.762,23.374a.462.462,0,0,1-.46-.468.762.762,0,0,1,.029-.158l.944-3.411a1.088,1.088,0,0,0-.19-.715,2.154,2.154,0,0,0-.122-.183,9.606,9.606,0,0,1-1.586-5.288,9.867,9.867,0,0,1,9.992-9.776,9.958,9.958,0,0,1,9.8,7.781,9.567,9.567,0,0,1,.213,2,9.8,9.8,0,0,1-9.836,9.852,11.745,11.745,0,0,1-2.715-.4c-.648-.182-1.294-.422-1.461-.486a1.5,1.5,0,0,0-.54-.1,1.476,1.476,0,0,0-.576.117L4.986,23.315A.769.769,0,0,1,4.762,23.374Z" transform="translate(50.625 194.625)" fill="#848490"/>
  </g>
</svg>
