<svg xmlns="http://www.w3.org/2000/svg" width="24" height="24" viewBox="0 0 24 24">
  <g id="Group_2412" data-name="Group 2412" transform="translate(-52 -196)">
    <g id="Rectangle_304" data-name="Rectangle 304" transform="translate(52 196)" fill="none" stroke="#707070" stroke-width="1" opacity="0">
      <rect width="24" height="24" stroke="none"/>
      <rect x="0.5" y="0.5" width="23" height="23" fill="none"/>
    </g>
    <path id="user-o" d="M13.4,8.75a4.828,4.828,0,0,1,1,.424,4.388,4.388,0,0,1,.993.815,5.252,5.252,0,0,1,.887,1.289A8.089,8.089,0,0,1,16.9,13.2a12.978,12.978,0,0,1,.246,2.639,4.209,4.209,0,0,1-1.116,2.941A3.514,3.514,0,0,1,13.337,20H3.806a3.514,3.514,0,0,1-2.69-1.222A4.206,4.206,0,0,1,0,15.837,12.972,12.972,0,0,1,.246,13.2a8.1,8.1,0,0,1,.614-1.919,5.248,5.248,0,0,1,.887-1.289,4.388,4.388,0,0,1,.993-.815,4.828,4.828,0,0,1,1-.424A5.661,5.661,0,0,1,3.309,3.5,5.653,5.653,0,0,1,6.356.452a5.653,5.653,0,0,1,4.431,0A5.657,5.657,0,0,1,13.834,3.5,5.664,5.664,0,0,1,13.4,8.75ZM8.572,1.428a4.129,4.129,0,0,0-3.03,1.256A4.132,4.132,0,0,0,4.286,5.714a4.125,4.125,0,0,0,1.256,3.03A4.134,4.134,0,0,0,8.572,10,4.126,4.126,0,0,0,11.6,8.744a4.13,4.13,0,0,0,1.256-3.03A4.13,4.13,0,0,0,11.6,2.684,4.128,4.128,0,0,0,8.572,1.428Zm4.766,17.143a2.155,2.155,0,0,0,1.679-.8,2.842,2.842,0,0,0,.7-1.936,8.535,8.535,0,0,0-.876-4.208,2.927,2.927,0,0,0-2.517-1.618,5.52,5.52,0,0,1-3.75,1.417,5.52,5.52,0,0,1-3.75-1.417A2.929,2.929,0,0,0,2.3,11.629a8.537,8.537,0,0,0-.877,4.208,2.839,2.839,0,0,0,.7,1.936,2.158,2.158,0,0,0,1.679.8h9.531Z" transform="translate(55.429 198)" fill="#848490"/>
  </g>
</svg>
