<svg xmlns="http://www.w3.org/2000/svg" width="24" height="24" viewBox="0 0 24 24">
  <g id="Group_2758" data-name="Group 2758" transform="translate(-52 -196)">
    <g id="Rectangle_304" data-name="Rectangle 304" transform="translate(52 196)" fill="none" stroke="#707070" stroke-width="1" opacity="0">
      <rect width="24" height="24" stroke="none"/>
      <rect x="0.5" y="0.5" width="23" height="23" fill="none"/>
    </g>
    <g id="chatbubble-outline" transform="translate(50.625 194.625)" fill="none" stroke-linecap="round">
      <path d="M5.274,19.337a1.088,1.088,0,0,0-.19-.715,2.157,2.157,0,0,0-.122-.183,9.606,9.606,0,0,1-1.586-5.288,9.867,9.867,0,0,1,9.992-9.776,9.958,9.958,0,0,1,9.8,7.781,9.567,9.567,0,0,1,.213,2,9.8,9.8,0,0,1-9.836,9.852,11.745,11.745,0,0,1-2.715-.4c-.648-.182-1.294-.422-1.461-.486a1.5,1.5,0,0,0-.535-.1,1.476,1.476,0,0,0-.581.117L4.986,23.315a.769.769,0,0,1-.224.059.462.462,0,0,1-.46-.468.762.762,0,0,1,.029-.158Z" stroke="none"/>
      <path d="M 13.5390567779541 21.5105152130127 C 15.79612636566162 21.5105152130127 17.90082550048828 20.63897514343262 19.46542549133301 19.05643463134766 C 21.01921653747559 17.48483467102051 21.87492561340332 15.39014434814453 21.87492561340332 13.1588249206543 C 21.87469673156738 12.59245491027832 21.81436729431152 12.02447509765625 21.69489669799805 11.46728515625 C 21.30711555480957 9.638315200805664 20.27228736877441 7.970154762268066 18.78102684020996 6.770094871520996 C 17.26241683959961 5.548024654388428 15.33958625793457 4.875004768371582 13.36674690246582 4.875004768371582 C 11.04492664337158 4.875004768371582 8.877566337585449 5.766504764556885 7.263916492462158 7.385274887084961 C 5.716526508331299 8.937564849853516 4.86811637878418 10.98365497589111 4.874976634979248 13.15144443511963 C 4.87490701675415 14.73047256469727 5.330742835998535 16.26213073730469 6.193708896636963 17.58358573913574 C 6.2564377784729 17.67010688781738 6.315805912017822 17.76001167297363 6.370566368103027 17.85145568847656 L 6.38529634475708 17.87659454345703 C 6.763556480407715 18.53697395324707 6.876476287841797 19.16101455688477 6.720916271209717 19.73137474060059 L 6.719486236572266 19.73657417297363 L 6.302009582519531 21.2458381652832 L 7.705813407897949 20.73924446105957 C 8.06202220916748 20.59491920471191 8.437501907348633 20.52178382873535 8.822626113891602 20.52178382873535 L 8.830336570739746 20.52179527282715 C 9.198036193847656 20.52238464355469 9.558476448059082 20.58967399597168 9.901866912841797 20.72189521789551 C 10.13079643249512 20.81008529663086 10.70281600952148 21.01588439941406 11.22907638549805 21.16354560852051 C 11.83691596984863 21.33410453796387 12.86715602874756 21.5105152130127 13.5390567779541 21.5105152130127 M 4.761636257171631 23.37427520751953 C 4.63827657699585 23.37391471862793 4.520186424255371 23.32419395446777 4.43372631072998 23.2361946105957 C 4.347276210784912 23.14819526672363 4.299646377563477 23.02924537658691 4.301466464996338 22.9058952331543 C 4.305456638336182 22.85237503051758 4.315076351165771 22.79943466186523 4.330186367034912 22.74794387817383 L 5.273776531219482 19.3366756439209 C 5.331216335296631 19.12607383728027 5.204716205596924 18.83342552185059 5.083696365356445 18.62214469909668 C 5.046026229858398 18.55924415588379 5.005176544189453 18.49831390380859 4.961296558380127 18.43958473205566 C 3.926446437835693 16.87005424499512 3.37489652633667 15.03136444091797 3.374976396560669 13.1513843536377 C 3.357886552810669 7.754474639892578 7.833086490631104 3.375004768371582 13.36674690246582 3.375004768371582 C 18.19271659851074 3.375004768371582 22.22142601013184 6.718584537506104 23.16227722167969 11.156174659729 C 23.30337715148926 11.81418514251709 23.37465667724609 12.48525428771973 23.37492561340332 13.15822505950928 C 23.37492561340332 18.56265449523926 19.07271575927734 23.0105152130127 13.5390567779541 23.0105152130127 C 12.65905666351318 23.0105152130127 11.47205638885498 22.7896556854248 10.8238468170166 22.60777473449707 C 10.17564678192139 22.42589569091797 9.529496192932129 22.18589401245117 9.362656593322754 22.12162399291992 C 9.190378189086914 22.05529022216797 9.00721549987793 22.02173614501953 8.822630882263184 22.02178573608398 C 8.624792098999023 22.02178573608398 8.428969383239746 22.06153297424316 8.246766090393066 22.13871383666992 L 4.985916614532471 23.31546401977539 C 4.914556503295898 23.34628486633301 4.838936328887939 23.36611557006836 4.761636257171631 23.37427520751953 Z" stroke="none" fill="#848490"/>
    </g>
  </g>
</svg>
